<?xml version="1.0" standalone="no"?>
<!DOCTYPE svg PUBLIC "-//W3C//DTD SVG 20010904//EN"
 "http://www.w3.org/TR/2001/REC-SVG-20010904/DTD/svg10.dtd">
<svg version="1.0" xmlns="http://www.w3.org/2000/svg"
 width="650.000000pt" height="650.000000pt" viewBox="0 0 650.000000 650.000000"
 preserveAspectRatio="xMidYMid meet">
<metadata>
Created by potrace 1.11, written by Peter Selinger 2001-2013
</metadata>
<g transform="translate(0.000000,650.000000) scale(0.100000,-0.100000)"
fill="#000000" stroke="none">
<path d="M3089 6406 c-2 -2 -49 -7 -104 -10 -413 -28 -873 -159 -1251 -356
-856 -447 -1467 -1248 -1653 -2166 -16 -82 -33 -173 -36 -203 -4 -30 -8 -61
-10 -70 -22 -115 -21 -591 1 -705 2 -10 6 -44 10 -75 11 -101 64 -339 105
-472 68 -222 170 -459 273 -634 25 -42 46 -79 46 -81 0 -9 136 -203 206 -294
313 -408 772 -764 1255 -973 110 -48 344 -134 382 -141 12 -3 22 -5 22 -6 0
-1 7 -3 15 -5 8 -2 48 -13 88 -24 40 -10 76 -19 80 -20 4 0 32 -6 62 -12 30
-6 75 -15 100 -20 53 -10 173 -26 285 -36 157 -15 542 -9 685 12 19 2 58 7 85
11 28 3 52 7 55 9 3 2 28 6 55 9 112 15 481 118 580 161 17 7 75 33 130 56
1170 503 1929 1641 1927 2887 -1 543 -134 1056 -395 1517 -507 898 -1409 1495
-2447 1619 -25 3 -65 8 -90 11 -49 7 -456 16 -461 11z"/>
</g>
</svg>
